<?xml version="1.0" standalone="no"?>
<!DOCTYPE svg PUBLIC "-//W3C//DTD SVG 20010904//EN"
 "http://www.w3.org/TR/2001/REC-SVG-20010904/DTD/svg10.dtd">
<svg version="1.0" xmlns="http://www.w3.org/2000/svg"
 width="700.000000pt" height="700.000000pt" viewBox="0 0 700.000000 700.000000"
 preserveAspectRatio="xMidYMid meet">
<metadata>
Created by potrace 1.14, written by Peter Selinger 2001-2017
</metadata>
<g transform="translate(0.000000,700.000000) scale(0.100000,-0.100000)"
fill="#000000" stroke="none">
<path d="M3457 6994 c-1 -1 -29 -4 -62 -8 -162 -16 -319 -73 -451 -163 -300
-205 -469 -581 -420 -938 l7 -50 -33 39 c-74 89 -238 236 -263 236 -4 0 -19 8
-33 18 -95 65 -291 121 -438 126 -286 10 -536 -87 -735 -284 -149 -148 -242
-330 -284 -555 -3 -16 -5 -79 -5 -140 0 -311 134 -584 385 -781 l39 -31 -49 7
c-189 29 -417 -12 -595 -107 -159 -86 -305 -226 -388 -373 -33 -59 -94 -200
-86 -200 3 0 0 -8 -5 -19 -6 -10 -13 -31 -15 -47 -3 -16 -10 -51 -15 -79 -13
-71 -6 -277 12 -362 110 -492 583 -823 1090 -760 l47 6 -47 -38 c-143 -113
-258 -272 -318 -441 -24 -67 -31 -95 -51 -205 -11 -60 -6 -232 10 -306 21 -96
51 -190 82 -251 218 -430 698 -644 1150 -512 199 57 380 178 505 337 l40 50
-7 -49 c-32 -238 28 -488 165 -687 150 -217 374 -362 634 -411 70 -14 293 -14
347 -2 14 4 36 8 50 11 14 2 50 13 80 24 355 123 589 393 665 766 10 47 13
224 5 289 l-6 60 25 -35 c41 -57 166 -175 232 -219 119 -82 288 -147 427 -165
61 -8 215 -8 252 0 14 3 41 7 60 10 100 13 258 79 375 158 74 50 198 175 249
251 120 180 176 373 170 582 -8 294 -135 548 -374 746 l-45 37 50 -6 c416 -53
818 163 1003 538 49 99 84 212 97 309 7 57 8 240 1 260 -3 8 -8 33 -11 54 -3
22 -18 78 -34 125 -112 335 -403 588 -753 656 -53 10 -275 14 -315 5 l-38 -9
35 31 c141 122 220 220 285 353 255 519 6 1145 -539 1350 -248 93 -547 76
-786 -45 -119 -61 -248 -169 -341 -285 -25 -32 -30 -35 -24 -15 14 42 12 257
-2 331 -87 464 -462 788 -941 812 -34 2 -63 2 -65 1z"/>
</g>
</svg>
